Coordinates
version=1
nRows=39
nColumns=30
inDegrees=yes

Units are S.I. units (second, meters, Newtons, ...)
Angles are in degrees.

endheader
time	floatyaw	floatroll	floatpitch	floatx	floaty	floatz	pro_sup_l	deviation_l	flexion_l	cmc_flexion_l	cmc_abduction_l	mp_flexion_l	ip_flexion_l	2mcp_flexion_l	2mcp_abduction_l	2pm_flexion_l	2md_flexion_l	3mcp_flexion_l	3mcp_abduction_l	3pm_flexion_l	3md_flexion_l	4mcp_flexion_l	4mcp_abduction_l	4pm_flexion_l	4md_flexion_l	5mcp_flexion_l	5mcp_abduction_l	5pm_flexion_l	5md_flexion_l
-0.995000	-160.147433	-5.066637	-73.570646	0.071457	-0.177765	-0.022213	101.431239	4.903068	-0.078155	11.815242	10.988855	-26.182584	-42.018959	31.248916	7.215491	43.692291	31.568468	25.239282	4.372894	46.543450	31.704165	14.518269	-4.465101	54.278816	37.890585	3.158276	-8.223376	62.295216	43.945598
-0.985000	-160.147433	-5.066637	-73.570646	0.071453	-0.177754	-0.022189	101.429419	4.917536	-0.076617	11.799683	10.981887	-26.170539	-41.984389	31.282946	7.233958	43.672759	31.571592	25.246925	4.377885	46.550842	31.717961	14.532466	-4.466584	54.282450	37.900976	3.178647	-8.229914	62.331849	43.966704
-0.975000	-160.147433	-5.066637	-73.570646	0.071446	-0.177742	-0.022170	101.429215	4.930041	-0.074343	11.781003	10.998078	-26.152653	-41.947200	31.314006	7.252554	43.660336	31.576402	25.257677	4.381853	46.569016	31.741432	14.555414	-4.468267	54.287732	37.908212	3.211152	-8.239179	62.367864	43.984657
-0.965000	-160.147433	-5.066637	-73.570646	0.071440	-0.177733	-0.022154	101.427837	4.938229	-0.071429	11.762497	11.032010	-26.137903	-41.912789	31.335896	7.268034	43.657138	31.582117	25.266151	4.384572	46.589949	31.766374	14.576506	-4.470077	54.294039	37.912367	3.242420	-8.248734	62.395593	43.995971
-0.955000	-160.147433	-5.066637	-73.570646	0.071437	-0.177725	-0.022142	101.423377	4.941685	-0.066926	11.747368	11.072939	-26.134330	-41.885754	31.345406	7.277949	43.661850	31.584146	25.268520	4.386444	46.604599	31.784323	14.586372	-4.471934	54.301987	37.914347	3.261933	-8.256250	62.411305	43.998697
-0.945000	-160.147433	-5.066637	-73.570646	0.071439	-0.177720	-0.022133	101.415072	4.941388	-0.060079	11.736468	11.108344	-26.144880	-41.869601	31.343662	7.281058	43.670082	31.577607	25.264365	4.388054	46.605676	31.788956	14.580610	-4.473958	54.311982	37.915193	3.265051	-8.260372	62.415064	43.993306
-0.935000	-160.147433	-5.066637	-73.570646	0.071444	-0.177717	-0.022127	101.403554	4.939281	-0.051366	11.727877	11.128572	-26.165582	-41.865633	31.336154	7.277741	43.675261	31.560279	25.256534	4.389699	46.590702	31.778787	14.561852	-4.476493	54.323024	37.915586	3.254387	-8.261151	62.409018	43.982191
-0.925000	-160.147433	-5.066637	-73.570646	0.071451	-0.177714	-0.022122	101.390637	4.937807	-0.042568	11.718127	11.131224	-26.187114	-41.871545	31.330565	7.270174	43.671014	31.534057	25.248991	4.391256	46.563885	31.758407	14.538580	-4.479950	54.332921	37.915744	3.238614	-8.259883	62.395222	43.968070
-0.915000	-160.147433	-5.066637	-73.570646	0.071455	-0.177711	-0.022119	101.378497	4.939120	-0.035854	11.704115	11.122541	-26.199289	-41.881295	31.333006	7.261853	43.654491	31.504514	25.244194	4.392392	46.534924	31.736780	14.520858	-4.484518	54.339594	37.915574	3.228364	-8.258428	62.374475	43.952591
-0.905000	-160.147433	-5.066637	-73.570646	0.071456	-0.177708	-0.022114	101.368737	4.944206	-0.032554	11.684821	11.114055	-26.196426	-41.887253	31.344526	7.256427	43.628694	31.478831	25.241735	4.392840	46.514746	31.723010	14.515079	-4.489916	54.342358	37.914901	3.230610	-8.258273	62.347123	43.936219
-0.895000	-160.147433	-5.066637	-73.570646	0.071452	-0.177704	-0.022109	101.361959	4.952473	-0.032353	11.662168	11.116058	-26.180881	-41.883981	31.359921	7.256432	43.602056	31.462985	25.238855	4.392528	46.510653	31.721986	14.520713	-4.495360	54.342494	37.913618	3.244544	-8.259874	62.315365	43.919285
-0.885000	-160.147433	-5.066637	-73.570646	0.071448	-0.177701	-0.022103	101.357996	4.962180	-0.033426	11.640578	11.132154	-26.162635	-41.871467	31.369850	7.262645	43.585047	31.459399	25.232173	4.391516	46.523905	31.732571	14.530968	-4.499834	54.343020	37.911710	3.261736	-8.262650	62.284995	43.902918
-0.875000	-160.147433	-5.066637	-73.570646	0.071443	-0.177700	-0.022098	101.356506	4.971413	-0.033481	11.625181	11.158532	-26.154730	-41.855677	31.365593	7.274214	43.585450	31.466132	25.219615	4.389915	46.550726	31.749204	14.536973	-4.502582	54.347675	37.909163	3.271006	-8.265636	62.264391	43.888911
-0.865000	-160.147433	-5.066637	-73.570646	0.071441	-0.177701	-0.022096	101.357386	4.978952	-0.031064	11.619399	11.188041	-26.166733	-41.845815	31.344174	7.289172	43.604743	31.478018	25.201631	4.387860	46.585158	31.765561	14.532915	-4.503481	54.359151	37.905972	3.265292	-8.268321	62.260485	43.878797
-0.855000	-160.147433	-5.066637	-73.570646	0.071440	-0.177703	-0.022096	101.360584	4.984447	-0.026242	11.623114	11.215587	-26.199818	-41.849670	31.310941	7.304885	43.637355	31.489241	25.181135	4.385550	46.621472	31.777886	14.519042	-4.503003	54.377117	37.902351	3.246106	-8.271033	62.274136	43.873235
-0.845000	-160.147433	-5.066637	-73.570646	0.071441	-0.177703	-0.022098	101.365415	4.987910	-0.020191	11.632466	11.240703	-26.246295	-41.869618	31.277748	7.318408	43.673031	31.495946	25.162170	4.383229	46.655113	31.786220	14.500926	-4.501791	54.397171	37.898919	3.222492	-8.274551	62.298339	43.872153
-0.835000	-160.147433	-5.066637	-73.570646	0.071442	-0.177699	-0.022100	101.370161	4.989144	-0.014129	11.641515	11.265628	-26.293845	-41.901462	31.257393	7.327037	43.701139	31.497364	25.147990	4.381065	46.682804	31.793211	14.485842	-4.500212	54.411921	37.896481	3.205141	-8.279211	62.321048	43.875048
-0.825000	-160.147433	-5.066637	-73.570646	0.071442	-0.177691	-0.022102	101.372632	4.987747	-0.008531	11.644942	11.291053	-26.331807	-41.936581	31.257445	7.329144	43.714903	31.494842	25.139670	4.379009	46.702821	31.801590	14.478736	-4.498256	54.414284	37.895396	3.199670	-8.284211	62.331349	43.880878
-0.815000	-160.147433	-5.066637	-73.570646	0.071444	-0.177681	-0.022105	101.371339	4.983666	-0.003187	11.640292	11.313529	-26.355697	-41.966028	31.277152	7.324928	43.713529	31.489761	25.135997	4.376820	46.715509	31.812045	14.480055	-4.495801	54.401456	37.895099	3.203542	-8.287736	62.325371	43.887869
-0.805000	-160.147433	-5.066637	-73.570646	0.071446	-0.177671	-0.022108	101.366126	4.977637	0.002191	11.628507	11.326903	-26.367668	-41.984303	31.309019	7.316493	43.701255	31.482232	25.134616	4.374289	46.723260	31.822857	14.486220	-4.492958	54.377036	37.894370	3.208290	-8.287933	62.308304	43.893970
-0.795000	-160.147433	-5.066637	-73.570646	0.071448	-0.177665	-0.022110	101.357627	4.970933	0.007554	11.612641	11.326617	-26.373440	-41.991030	31.343465	7.306997	43.684272	31.471660	25.133564	4.371506	46.729364	31.831323	14.491944	-4.490193	54.349600	37.892174	3.205009	-8.284079	62.291161	43.897862
-0.785000	-160.147433	-5.066637	-73.570646	0.071449	-0.177664	-0.022112	101.346161	4.964635	0.012617	11.595809	11.313523	-26.378289	-41.990038	31.373227	7.299241	43.667835	31.458497	25.132208	4.368908	46.736209	31.835681	14.492875	-4.488135	54.328376	37.888284	3.189309	-8.277091	62.284213	43.899569
-0.775000	-160.147433	-5.066637	-73.570646	0.071448	-0.177668	-0.022111	101.331357	4.959155	0.017196	11.579854	11.294358	-26.384621	-41.986767	31.395112	7.294551	43.655299	31.445397	25.131151	4.367025	46.744106	31.836077	14.487330	-4.487234	54.318702	37.883159	3.163049	-8.269017	62.291154	43.900027
-0.765000	-160.147433	-5.066637	-73.570646	0.071445	-0.177674	-0.022108	101.313088	4.954478	0.021280	11.565421	11.278451	-26.392129	-41.985528	31.409018	7.292712	43.648792	31.436349	25.131381	4.366131	46.751604	31.834009	14.476517	-4.487545	54.320143	37.877340	3.132707	-8.261845	62.307517	43.899982
-0.755000	-160.147433	-5.066637	-73.570646	0.071442	-0.177680	-0.022101	101.292908	4.950823	0.024840	11.552902	11.272648	-26.399621	-41.987834	31.415913	7.292872	43.649850	31.434030	25.133310	4.366097	46.757015	31.830906	14.463426	-4.488749	54.328144	37.871087	3.106071	-8.256429	62.323946	43.899216
-0.745000	-160.147433	-5.066637	-73.570646	0.071438	-0.177681	-0.022091	101.274449	4.948908	0.027702	11.543122	11.277453	-26.406765	-41.992190	31.416607	7.294557	43.658904	31.437232	25.136240	4.366598	46.759825	31.826957	14.451060	-4.490356	54.337699	37.864561	3.089105	-8.252206	62.331845	43.896669
-0.735000	-160.147433	-5.066637	-73.570646	0.071437	-0.177678	-0.022080	101.262054	4.949487	0.029789	11.537198	11.286351	-26.414513	-41.995183	31.411860	7.297928	43.674205	31.440578	25.138471	4.367511	46.760838	31.820947	14.440912	-4.491953	54.346396	37.858184	3.084032	-8.247795	62.327850	43.891211
-0.725000	-160.147433	-5.066637	-73.570646	0.071439	-0.177670	-0.022069	101.258565	4.952636	0.031533	11.535868	11.288399	-26.424289	-41.993293	31.402992	7.303280	43.691572	31.437202	25.137940	4.369192	46.761089	31.811145	14.432499	-4.493372	54.355040	37.852600	3.088960	-8.242107	62.314871	43.882380
-0.715000	-160.147433	-5.066637	-73.570646	0.071442	-0.177659	-0.022060	101.263981	4.957573	0.033910	11.538897	11.272962	-26.436777	-41.984551	31.392011	7.310473	43.705722	31.422914	25.133051	4.372379	46.760761	31.796784	14.424181	-4.494752	54.365915	37.848189	3.099042	-8.235255	62.299719	43.870700
-0.705000	-160.147433	-5.066637	-73.570646	0.071448	-0.177649	-0.022054	101.275821	4.963245	0.037836	11.544832	11.234920	-26.451161	-41.969250	31.381086	7.318835	43.712616	31.399201	25.123322	4.377723	46.759332	31.779364	14.414688	-4.496453	54.380281	37.844706	3.108780	-8.228689	62.289097	43.857570
-0.695000	-160.147433	-5.066637	-73.570646	0.071454	-0.177641	-0.022050	101.290626	4.969096	0.043288	11.551177	11.178166	-26.465227	-41.949673	31.371973	7.327460	43.711375	31.372950	25.109599	4.385232	46.756760	31.762824	14.404192	-4.498848	54.397043	37.841489	3.114496	-8.224433	62.286264	43.844783
-0.685000	-160.147433	-5.066637	-73.570646	0.071460	-0.177635	-0.022048	101.305391	4.975314	0.048977	11.555022	11.115218	-26.476320	-41.929461	31.365885	7.335429	43.704585	31.352701	25.093879	4.393987	46.754285	31.751881	14.394151	-4.502076	54.413394	37.837985	3.115716	-8.223950	62.290040	43.833741
-0.675000	-160.147433	-5.066637	-73.570646	0.071464	-0.177631	-0.022047	101.318179	4.982346	0.052960	11.553955	11.062454	-26.482653	-41.912953	31.363723	7.341804	43.696764	31.343540	25.078871	4.402366	46.753786	31.749181	14.386202	-4.505869	54.426518	37.833921	3.114766	-8.227431	62.296279	43.824736
-0.665000	-160.147433	-5.066637	-73.570646	0.071467	-0.177627	-0.022045	101.327912	4.990077	0.053821	11.546767	11.033127	-26.484162	-41.904092	31.366287	7.345576	43.691844	31.344023	25.067322	4.408689	46.756116	31.753251	14.381098	-4.509566	54.434709	37.828966	3.114925	-8.233919	62.300496	43.816943
-0.655000	-160.147433	-5.066637	-73.570646	0.071467	-0.177622	-0.022042	101.333864	4.997348	0.051528	11.533516	11.031918	-26.482281	-41.904656	31.374216	7.345941	43.691075	31.347304	25.061167	4.411999	46.759954	31.759043	14.378533	-4.512343	54.437188	37.822414	3.118414	-8.242062	62.299916	43.809370
-0.645000	-160.147433	-5.066637	-73.570646	0.071467	-0.177615	-0.022040	101.335419	5.002265	0.047342	11.514990	11.053895	-26.478798	-41.912545	31.387631	7.342896	43.692590	31.345606	25.060690	4.412642	46.762338	31.760909	14.377790	-4.513603	54.433483	37.813484	3.125465	-8.250916	62.294160	43.802115
-0.635000	-160.147433	-5.066637	-73.570646	0.071467	-0.177606	-0.022041	101.332247	5.003129	0.042906	11.492092	11.087910	-26.474683	-41.921666	31.405582	7.337743	43.692851	31.334741	25.064132	4.412304	46.760691	31.755909	14.378435	-4.513336	54.423570	37.802067	3.134739	-8.260254	62.284957	43.796816
-0.625000	-160.147433	-5.066637	-73.570646	0.071468	-0.177599	-0.022043	101.324550	4.999313	0.039293	11.465554	11.121801	-26.469789	-41.924231	31.425688	7.332897	43.688832	31.315709	25.068128	4.413371	46.754675	31.745103	14.380303	-4.512149	54.408728	37.789176	3.144177	-8.270252	62.275477	43.795761
-0.615000	-160.147433	-5.066637	-73.570646	0.071469	-0.177595	-0.022048	101.313052	4.991530	0.036730	11.436031	11.146313	-26.463489	-41.914487	31.444454	7.330816	43.679254	31.292989	25.069017	4.417805	46.746161	31.732164	14.382764	-4.510880	54.391882	37.776602	3.151371	-8.280812	62.269315	43.800309
